{"glyphs":{":":{"x_min":0,"x_max":283,"ha":283,"o":""},"$":{"x_min":0,"x_max":518,"ha":518,"o":"m 149 463 q 149 449 155 437 q 160 426 170 416 q 181 407 195 399 q 209 391 226 384 l 226 529 q 191 524 170 506 q 149 488 149 463 z m 365 153 q 365 171 359 186 q 354 200 343 211 q 333 223 319 232 q 305 241 289 249 l 289 71 q 304 73 318 79 q 332 85 342 95 q 353 105 359 120 q 365 134 365 153 z m 289 -60 q 280 -68 268 -75 q 256 -82 244 -85 l 226 -69 l 226 -4 q 206 -3 182 1 q 158 6 134 14 q 109 22 85 33 q 61 43 40 57 q 38 58 37 68 q 36 77 35 91 q 35 105 36 122 q 36 139 37 156 q 39 172 41 187 q 42 201 45 210 l 85 208 q 97 183 111 161 q 125 139 142 121 q 159 103 179 90 q 200 78 226 72 l 226 274 q 192 286 159 298 q 125 311 99 329 q 72 348 55 374 q 38 400 38 440 q 38 461 47 485 q 56 510 78 532 q 100 554 136 570 q 172 586 226 591 l 226 652 q 232 656 238 660 q 243 663 248 666 q 253 669 259 671 q 264 674 271 676 l 289 660 l 289 592 q 316 590 343 585 q 369 580 392 572 q 415 565 433 556 q 451 548 459 539 q 461 537 460 528 q 459 520 456 508 q 453 496 448 483 q 444 469 438 457 q 433 444 428 435 q 423 425 418 421 l 380 425 q 365 463 343 489 q 321 514 289 524 l 289 361 q 323 349 357 335 q 391 321 418 301 q 445 280 462 251 q 479 222 479 179 q 479 150 469 121 q 459 91 436 66 q 414 42 377 23 q 341 5 289 -1 z"},"?":{"x_min":0,"x_max":462,"ha":462,"o":"m 433 569 q 433 532 420 502 q 407 471 388 445 q 368 419 345 396 q 323 372 303 349 q 283 326 269 302 q 255 278 253 251 l 250 205 q 241 198 227 193 q 212 188 199 185 l 182 200 l 178 251 q 176 279 184 306 q 191 332 204 357 q 216 382 231 406 q 246 431 259 454 q 272 478 281 500 q 289 523 289 547 q 289 607 272 634 q 255 661 227 661 q 216 661 207 656 q 197 650 189 639 q 182 628 177 613 q 173 598 173 579 q 173 572 175 562 q 176 553 179 546 q 171 542 154 537 q 136 531 116 526 q 97 521 78 518 q 59 514 48 513 l 30 532 q 29 536 29 545 l 29 558 q 29 592 48 622 q 67 652 99 675 q 130 697 172 710 q 214 723 260 723 q 301 723 333 711 q 366 700 388 680 q 410 660 421 631 q 433 603 433 569 z m 308 65 q 308 44 300 29 q 292 13 279 2 q 266 -8 249 -14 q 231 -20 211 -20 q 197 -20 183 -16 q 168 -12 157 -3 q 146 5 140 18 q 133 31 133 50 q 133 70 141 86 q 149 102 163 113 q 176 124 194 129 q 211 135 230 135 q 244 135 258 131 q 272 127 283 118 q 294 110 301 97 q 308 83 308 65 z"},"<":{"x_min":0,"x_max":459,"ha":459,"o":"m 435 164 q 429 159 423 153 q 416 146 409 139 q 402 132 394 126 q 386 120 379 115 l 42 234 l 24 256 q 24 258 25 258 q 25 259 25 260 q 25 260 25 261 l 26 264 l 27 268 l 29 275 l 31 280 l 33 288 l 35 293 q 36 296 38 301 q 38 302 38 302 l 39 306 q 40 306 40 307 l 42 313 l 44 319 l 417 453 l 435 436 q 433 430 431 421 q 428 412 425 401 q 422 391 420 382 q 417 373 416 368 l 163 277 l 421 187 z"},"'":{"x_min":0,"x_max":279,"ha":279,"o":"m 175 407 q 171 405 163 403 q 154 401 144 400 q 134 398 124 398 q 115 397 109 397 l 63 677 q 67 679 77 683 q 87 687 100 692 q 113 697 127 702 q 142 707 154 711 q 167 716 177 719 q 187 722 190 723 l 216 708 z"},"=":{"x_min":0,"x_max":459,"ha":459,"o":"m 435 223 q 433 217 430 209 q 426 201 422 192 q 418 183 415 175 q 412 167 410 164 l 42 164 l 24 180 q 26 186 29 194 q 32 202 36 210 q 40 219 43 227 q 47 234 49 239 l 417 239 z m 435 369 q 433 364 430 355 q 426 347 422 338 q 418 330 415 322 q 412 314 410 310 l 42 310 l 24 327 q 26 332 29 340 q 32 348 36 357 q 40 365 43 373 q 47 381 49 386 l 417 386 z"},"a":{"x_min":0,"x_max":513,"ha":513,"o":"m 211 78 q 218 78 227 80 q 236 81 247 86 q 258 91 272 101 q 286 110 304 125 l 304 228 q 278 223 260 219 q 243 215 230 211 q 218 207 210 202 q 202 197 196 191 q 184 179 176 165 q 168 151 168 131 q 168 116 172 105 q 177 95 183 89 q 189 83 197 81 q 205 78 211 78 z m 511 60 q 490 45 467 32 q 443 19 421 8 q 398 -2 380 -8 q 362 -15 353 -15 q 334 -15 321 6 q 308 26 305 61 q 283 39 260 24 q 238 10 218 1 q 197 -8 178 -11 q 159 -15 143 -15 q 122 -15 101 -7 q 81 0 65 15 q 49 29 39 51 q 29 72 29 101 q 29 132 41 155 q 53 178 71 196 q 83 208 98 219 q 113 229 139 240 q 165 250 205 260 q 244 270 304 279 l 304 333 q 304 348 302 360 q 299 373 292 381 q 286 390 274 395 q 263 400 247 400 q 236 400 226 396 q 215 392 207 384 q 199 376 195 365 q 190 354 191 339 q 192 336 183 331 q 173 327 159 322 q 145 316 127 312 q 110 307 94 303 q 78 299 66 297 q 54 295 50 296 l 38 325 q 50 356 76 382 q 102 408 137 427 q 172 447 214 458 q 256 469 300 469 q 335 469 361 459 q 387 450 404 433 q 420 417 428 395 q 436 373 436 348 l 436 126 q 436 105 441 97 q 447 88 456 88 q 459 88 462 88 q 466 89 471 90 q 476 92 482 94 q 489 97 499 101 z"},"L":{"x_min":0,"x_max":520,"ha":520,"o":"m 510 158 q 508 137 505 113 q 502 88 500 65 q 497 42 494 25 q 492 7 490 0 l 20 0 l 20 41 q 53 47 69 55 q 85 63 85 70 l 85 544 q 85 550 70 559 q 55 568 20 575 l 20 615 l 288 615 l 288 575 q 255 568 239 560 q 222 551 222 544 l 222 100 q 222 91 226 84 q 230 78 241 73 q 251 68 269 66 q 286 63 313 63 l 363 63 q 386 63 401 70 q 417 76 428 89 q 440 102 449 123 q 459 143 469 172 z"},"3":{"x_min":0,"x_max":518,"ha":518,"o":"m 461 186 q 461 145 444 108 q 427 72 397 44 q 367 17 325 1 q 283 -15 232 -15 q 213 -15 189 -10 q 164 -5 138 5 q 112 16 86 31 q 60 47 38 68 l 60 120 q 104 87 142 73 q 180 59 216 59 q 237 59 256 65 q 275 72 289 86 q 303 100 312 122 q 320 144 320 175 q 320 208 310 230 q 299 252 284 265 q 269 278 251 284 q 234 290 220 290 l 208 290 q 204 290 199 289 q 194 289 189 288 q 184 288 177 286 l 167 335 q 208 346 233 361 q 257 376 271 393 q 284 410 288 427 q 292 444 292 459 q 292 476 289 491 q 286 507 279 519 q 272 530 261 537 q 250 544 232 544 q 222 544 212 538 q 202 532 196 522 q 189 511 187 497 q 185 482 190 465 q 180 459 165 453 q 150 446 134 441 q 117 436 100 432 q 83 428 69 427 l 51 461 q 51 482 66 507 q 81 531 108 553 q 136 574 174 589 q 213 603 260 603 q 308 603 341 591 q 374 580 394 560 q 415 541 424 517 q 434 493 434 468 q 434 449 426 430 q 418 411 405 393 q 391 375 372 362 q 353 348 330 341 q 360 338 385 324 q 409 311 426 290 q 443 269 452 242 q 461 216 461 186 z"},";":{"x_min":0,"x_max":283,"ha":283,"o":""},"J":{"x_min":0,"x_max":344,"ha":344,"o":"m 315 575 q 282 568 265 560 q 249 551 249 544 l 249 85 q 249 33 237 -5 q 226 -43 208 -72 q 189 -100 168 -120 q 146 -140 127 -155 q 114 -166 98 -176 q 82 -186 63 -193 q 45 -201 26 -205 q 6 -210 -12 -210 q -36 -210 -59 -205 q -83 -199 -101 -192 q -119 -184 -130 -176 q -142 -167 -142 -161 q -142 -157 -136 -150 q -131 -142 -122 -133 q -113 -124 -103 -114 q -92 -104 -82 -95 q -72 -87 -64 -81 q -55 -75 -51 -73 q -23 -99 2 -110 q 27 -121 46 -121 q 59 -121 71 -115 q 83 -110 92 -93 q 101 -75 107 -41 q 112 -7 112 50 l 112 544 q 112 547 109 551 q 106 554 96 558 q 87 562 69 566 q 51 570 22 575 l 22 615 l 315 615 z"},"V":{"x_min":0,"x_max":669,"ha":669,"o":"m 654 575 q 621 568 602 562 q 583 556 579 542 l 396 43 q 393 33 381 23 q 370 14 355 7 q 340 0 324 -6 q 308 -11 294 -15 l 69 542 q 64 555 50 563 q 36 571 5 575 l 5 615 l 266 615 l 266 575 q 247 573 234 571 q 222 568 215 565 q 208 561 207 556 q 206 550 208 543 l 362 153 l 501 542 q 503 550 502 555 q 500 560 494 563 q 487 567 474 570 q 461 572 441 575 l 441 615 l 654 615 z"},"\"":{"x_min":0,"x_max":483,"ha":483,"o":"m 175 407 q 171 405 163 403 q 154 401 144 400 q 134 398 124 398 q 115 397 109 397 l 63 677 q 67 679 77 683 q 87 687 100 692 q 113 697 127 702 q 142 707 154 711 q 167 716 177 719 q 187 722 190 723 l 216 708 z m 379 407 q 375 405 367 403 q 358 401 348 400 q 338 398 328 398 q 319 397 313 397 l 268 677 q 271 679 281 683 q 291 687 304 692 q 317 697 331 702 q 346 707 358 711 q 371 716 381 719 q 391 722 394 723 l 420 708 z"},"7":{"x_min":0,"x_max":518,"ha":518,"o":"m 481 570 q 458 517 437 464 q 415 411 395 359 q 375 307 356 258 q 338 209 323 167 q 308 124 295 88 q 283 52 274 26 q 266 21 251 14 q 236 8 219 3 q 202 -2 185 -7 q 168 -12 156 -15 l 131 6 q 160 56 184 100 q 208 144 228 184 q 249 224 268 261 q 286 298 303 336 q 321 373 338 411 q 354 449 373 491 l 156 491 q 148 491 140 489 q 132 487 123 479 q 113 471 103 455 q 93 438 83 410 l 46 424 q 47 431 49 444 q 51 458 53 473 q 55 489 58 507 q 60 524 62 540 q 65 555 67 568 q 70 581 72 588 l 465 588 z"},"S":{"x_min":0,"x_max":525,"ha":525,"o":"m 486 184 q 486 162 479 139 q 472 116 459 94 q 445 72 425 52 q 404 32 376 18 q 348 3 312 -6 q 277 -15 234 -15 q 216 -15 192 -11 q 168 -8 144 -2 q 119 4 95 13 q 71 22 54 33 q 52 34 50 43 q 49 52 48 66 q 48 80 48 97 q 48 114 49 132 q 51 149 53 167 q 56 184 59 197 l 99 195 q 110 166 126 141 q 142 116 161 98 q 181 80 204 69 q 227 59 252 59 q 274 59 294 64 q 313 69 329 80 q 344 91 353 108 q 361 125 361 148 q 361 178 348 200 q 335 222 313 239 q 292 255 264 269 q 236 283 207 296 q 178 310 150 325 q 122 340 100 360 q 79 380 65 406 q 52 432 52 467 q 52 482 58 500 q 64 519 77 537 q 89 555 108 572 q 127 588 153 601 q 179 614 212 622 q 246 630 286 630 q 314 630 340 626 q 367 623 389 617 q 412 611 429 603 q 447 595 456 585 q 458 583 457 575 q 456 568 452 558 q 449 547 444 535 q 438 523 433 512 q 427 501 422 493 q 417 484 413 481 l 375 484 q 366 509 352 526 q 338 542 323 553 q 308 563 292 567 q 276 571 262 571 q 239 571 222 565 q 206 560 195 550 q 184 540 179 527 q 174 514 174 500 q 174 477 188 459 q 201 441 223 426 q 245 411 273 396 l 330 368 q 359 354 387 336 q 415 319 437 298 q 459 276 472 248 q 486 220 486 184 z"},"}":{"x_min":0,"x_max":355,"ha":355,"o":"m 316 308 q 262 293 238 268 q 214 242 214 206 q 214 180 218 159 q 221 139 224 120 q 228 101 231 81 q 234 60 234 34 q 234 0 219 -27 q 203 -54 175 -77 q 148 -100 111 -119 q 74 -138 32 -154 l 10 -112 q 48 -88 71 -57 q 95 -26 95 6 q 95 31 92 51 q 88 71 85 91 q 81 111 78 131 q 75 151 75 176 q 75 197 82 217 q 90 236 103 254 q 116 271 134 285 q 152 299 172 308 q 124 317 99 351 q 75 385 75 439 q 75 464 78 488 q 81 511 85 532 q 88 554 92 574 q 95 595 95 616 q 95 633 92 648 q 89 664 80 677 q 72 691 56 704 q 41 717 15 731 l 36 781 q 82 764 119 747 q 156 730 181 710 q 207 689 221 663 q 234 637 234 602 q 234 577 231 555 q 228 534 224 513 q 221 492 218 470 q 214 448 214 421 q 214 381 230 366 q 247 351 276 351 l 286 351 q 289 351 292 351 q 294 351 297 352 q 300 353 308 354 z"},"Z":{"x_min":0,"x_max":552,"ha":552,"o":"m 518 182 q 517 167 516 141 q 516 116 515 90 q 514 63 513 39 q 513 14 512 0 l 43 0 l 24 27 l 347 547 l 167 547 q 159 547 149 538 q 139 528 129 512 q 119 496 111 474 q 102 452 97 426 l 49 437 l 68 623 q 82 620 93 618 q 104 617 114 616 q 125 615 136 615 l 496 615 l 513 589 l 193 68 l 405 68 q 415 68 423 77 q 432 85 439 101 q 447 117 455 140 q 462 164 472 194 z"},"x":{"x_min":0,"x_max":527,"ha":527,"o":"m 266 0 l 266 41 q 278 42 288 43 q 298 44 303 49 q 308 53 307 60 q 306 68 297 81 l 233 170 l 162 81 q 151 68 151 61 q 151 53 157 49 q 163 45 173 43 q 183 42 195 41 l 195 0 l 5 0 l 5 41 q 22 43 35 48 q 47 52 56 58 q 65 63 72 70 q 79 77 84 84 l 195 223 l 88 372 q 82 381 76 388 q 69 395 61 400 q 52 405 40 409 q 28 412 10 414 l 10 454 l 264 454 l 264 414 q 249 412 240 410 q 232 408 229 404 q 226 399 229 392 q 232 385 241 373 l 288 307 l 341 373 q 350 385 354 392 q 357 399 354 403 q 352 408 343 410 q 334 412 319 414 l 319 454 l 505 454 l 505 414 q 485 412 472 409 q 459 405 449 400 q 440 395 433 388 q 426 381 419 372 l 326 254 l 447 84 q 453 77 459 70 q 465 63 473 57 q 481 51 493 47 q 504 42 521 41 l 521 0 z"},")":{"x_min":0,"x_max":336,"ha":336,"o":"m 288 323 q 288 243 271 171 q 254 100 222 40 q 190 -21 144 -70 q 98 -119 41 -154 l 10 -113 q 39 -83 63 -42 q 88 -2 106 50 q 125 102 136 166 q 146 230 146 309 q 146 453 112 561 q 78 670 10 739 l 41 781 q 166 711 227 595 q 288 478 288 323 z"},"&":{"x_min":0,"x_max":701,"ha":701,"o":"m 251 552 q 251 527 258 501 q 264 475 276 447 q 295 460 309 475 q 323 491 331 507 q 339 523 343 540 q 346 557 346 572 q 346 589 342 602 q 337 615 331 624 q 324 632 315 637 q 306 641 297 641 q 285 641 276 634 q 268 627 262 615 q 256 604 254 587 q 251 571 251 552 z m 287 61 q 311 61 333 67 q 355 74 376 86 q 354 107 332 131 q 309 155 287 181 q 265 208 244 236 q 223 265 205 294 q 186 267 179 240 q 172 213 172 182 q 172 148 182 125 q 193 102 209 87 q 226 73 247 67 q 267 61 287 61 z m 701 365 q 695 358 688 348 q 680 338 672 328 q 664 318 656 310 q 649 302 643 297 q 625 306 605 313 q 585 321 569 322 q 579 310 582 295 q 585 280 585 265 q 585 233 570 198 q 556 162 529 127 q 545 113 561 101 q 588 78 617 72 q 646 67 669 72 l 678 32 q 657 22 632 14 q 607 5 585 -1 q 562 -7 545 -11 q 528 -15 523 -15 q 510 -15 486 -1 q 462 13 431 39 q 392 14 347 0 q 302 -15 253 -15 q 200 -15 158 -3 q 116 9 88 33 q 59 56 44 91 q 29 126 29 172 q 29 222 61 272 q 92 323 162 375 q 145 413 135 450 q 125 488 125 524 q 125 563 141 597 q 157 631 185 656 q 212 680 249 694 q 286 708 328 708 q 367 708 395 698 q 423 688 442 671 q 460 655 469 633 q 478 611 478 588 q 478 562 463 535 q 449 508 426 482 q 403 457 374 433 q 345 410 316 392 l 308 386 q 324 359 343 333 q 362 306 383 281 q 404 255 427 230 q 449 206 471 184 q 479 199 483 215 q 487 230 487 245 q 487 266 481 281 q 475 297 464 308 q 454 318 441 324 q 428 330 414 330 l 398 348 q 400 351 406 357 q 412 363 418 369 q 425 375 432 381 q 439 386 444 388 l 685 388 z"},"_":{"x_min":0,"x_max":488,"ha":488,"o":"m 464 -80 q 462 -85 459 -94 q 456 -102 452 -111 q 448 -120 444 -127 q 441 -135 439 -139 l 42 -139 l 24 -123 q 26 -117 29 -109 q 32 -101 36 -93 q 40 -84 43 -76 q 47 -68 49 -63 l 447 -63 z"},"v":{"x_min":0,"x_max":513,"ha":513,"o":"m 507 414 q 493 410 484 407 q 476 404 471 401 q 466 397 464 392 q 461 387 458 380 l 320 43 q 316 33 306 23 q 297 14 284 7 q 272 0 258 -6 q 244 -11 230 -15 l 54 380 q 51 387 48 392 q 44 397 39 401 q 33 405 25 408 q 17 411 5 414 l 5 454 l 237 454 l 237 414 q 218 411 208 408 q 197 406 192 402 q 188 398 188 393 q 188 388 192 380 l 292 157 l 386 380 q 389 388 390 393 q 391 398 387 402 q 383 405 375 408 q 366 411 350 414 l 350 454 l 507 454 z"},"O":{"x_min":0,"x_max":629,"ha":629,"o":"m 456 307 q 456 357 444 404 q 433 451 411 486 q 390 521 361 543 q 331 564 295 564 q 263 564 238 547 q 213 530 197 498 q 180 466 172 419 q 164 373 164 313 q 164 258 176 211 q 188 164 209 129 q 230 94 259 74 q 287 54 319 54 q 349 54 374 69 q 399 84 417 116 q 435 147 445 195 q 456 243 456 307 z m 595 316 q 595 271 584 230 q 573 188 553 152 q 533 115 506 84 q 479 54 445 32 q 412 10 374 -2 q 336 -15 295 -15 q 233 -15 183 11 q 132 37 97 81 q 62 124 43 181 q 24 237 24 299 q 24 365 46 425 q 68 485 107 531 q 147 576 202 603 q 257 630 324 630 q 390 630 440 603 q 491 577 525 533 q 560 489 577 432 q 595 375 595 316 z"},"(":{"x_min":0,"x_max":336,"ha":336,"o":"m 297 -154 q 171 -84 110 32 q 49 149 49 304 q 49 384 66 456 q 83 527 115 587 q 147 648 193 697 q 239 746 297 781 l 327 740 q 299 709 274 669 q 250 629 231 577 q 212 525 202 460 q 191 396 191 318 q 191 174 225 66 q 259 -43 327 -112 z"},"C":{"x_min":0,"x_max":565,"ha":565,"o":"m 531 103 q 469 40 407 13 q 346 -15 289 -15 q 238 -15 190 6 q 143 26 106 65 q 69 104 47 159 q 24 215 24 286 q 24 364 49 428 q 73 491 115 536 q 157 582 215 606 q 272 630 340 630 q 366 630 393 626 q 420 622 444 615 q 469 609 489 600 q 509 591 522 581 q 524 580 522 571 q 520 563 515 551 q 510 539 503 525 q 497 511 490 499 q 484 486 478 476 q 472 466 468 462 l 432 470 q 407 520 376 541 q 344 562 309 562 q 284 562 258 550 q 232 538 211 509 q 190 479 177 430 q 164 380 164 304 q 164 243 179 199 q 195 155 220 127 q 245 100 276 86 q 307 73 338 73 q 352 73 370 76 q 388 79 409 86 q 430 93 454 106 q 479 119 503 140 q 506 138 510 132 q 514 127 518 121 q 522 115 526 110 q 530 104 531 103 z"},"W":{"x_min":0,"x_max":850,"ha":850,"o":"m 851 575 q 829 570 815 566 q 801 562 792 559 q 784 555 781 552 q 777 548 776 544 l 665 29 q 662 19 653 11 q 645 3 633 -2 q 622 -7 611 -10 q 599 -13 592 -15 l 423 417 l 283 29 q 279 19 270 11 q 261 4 250 -1 q 238 -6 226 -10 q 214 -13 204 -15 l 77 541 q 75 553 60 561 q 44 568 10 575 l 10 615 l 258 615 l 258 575 q 234 572 221 569 q 208 565 203 561 q 197 556 196 551 q 196 546 197 541 l 276 210 l 413 615 l 469 615 l 630 210 l 704 544 q 705 550 700 555 q 694 559 684 562 q 674 566 660 569 q 646 572 629 575 l 629 615 l 851 615 z"},"A":{"x_min":0,"x_max":639,"ha":639,"o":"m 363 271 l 284 490 l 214 271 z m 193 208 l 149 74 q 144 59 160 52 q 177 45 217 41 l 217 0 l 0 0 l 0 41 q 33 46 50 53 q 67 59 72 74 l 239 584 q 252 596 268 605 q 284 614 301 621 q 317 628 334 634 q 350 639 365 643 l 570 74 q 572 67 576 62 q 580 56 586 52 q 593 48 603 45 q 613 42 629 41 l 629 0 l 374 0 l 374 41 q 412 42 425 50 q 438 58 433 74 l 385 208 z"},"f":{"x_min":0,"x_max":349,"ha":349,"o":"m 447 710 q 447 704 442 695 q 437 686 428 677 q 420 667 411 657 q 401 647 391 639 q 382 631 374 625 q 365 619 360 617 q 337 648 315 662 q 294 676 277 676 q 265 676 254 669 q 244 661 236 641 q 228 621 224 586 q 220 551 220 496 l 220 454 l 340 454 l 359 435 q 354 426 348 417 q 341 407 335 398 q 328 390 322 382 q 315 375 311 371 q 300 377 279 383 q 259 388 220 388 l 220 69 q 220 66 224 63 q 229 61 240 57 q 251 54 270 50 q 288 46 317 41 l 317 0 l 24 0 l 24 41 q 58 46 73 55 q 88 63 88 69 l 88 388 l 32 388 l 17 407 l 55 454 l 88 454 l 88 469 q 88 539 107 591 q 126 643 166 683 q 185 702 206 716 q 226 730 246 740 q 266 749 285 753 q 304 757 321 757 q 345 757 367 751 q 390 745 408 738 q 425 730 436 722 q 447 714 447 710 z"},"Q":{"x_min":0,"x_max":629,"ha":629,"o":"m 456 307 q 456 357 444 404 q 433 451 411 486 q 390 521 361 543 q 331 564 295 564 q 263 564 238 547 q 213 530 197 498 q 180 466 172 419 q 164 373 164 313 q 164 258 176 211 q 188 164 209 129 q 230 94 259 74 q 287 54 319 54 q 349 54 374 69 q 399 84 417 116 q 435 147 445 195 q 456 243 456 307 z m 714 -62 q 702 -83 688 -102 q 674 -120 661 -134 q 647 -148 635 -156 q 624 -164 616 -164 q 593 -164 569 -156 q 545 -148 521 -135 q 497 -123 472 -106 q 448 -90 423 -73 q 399 -56 375 -40 q 350 -24 326 -13 q 318 -14 311 -14 q 303 -15 295 -15 q 233 -15 183 11 q 132 37 97 81 q 62 124 43 181 q 24 237 24 299 q 24 365 46 425 q 68 485 107 531 q 147 576 202 603 q 257 630 324 630 q 390 630 440 603 q 491 577 525 533 q 560 489 577 432 q 595 375 595 316 q 595 267 582 221 q 568 176 544 136 q 521 97 488 66 q 455 35 416 15 q 445 5 472 -7 q 499 -20 524 -31 q 549 -42 573 -51 q 596 -59 619 -59 q 625 -59 631 -57 q 637 -56 644 -53 q 651 -49 661 -43 q 671 -36 686 -25 z"},"w":{"x_min":0,"x_max":721,"ha":721,"o":"m 715 414 q 702 410 694 407 q 685 404 680 401 q 674 397 671 393 q 668 389 667 383 l 559 29 q 556 18 546 10 q 537 3 526 -2 q 515 -7 504 -10 q 493 -13 487 -15 l 359 256 l 261 29 q 257 18 248 10 q 239 2 229 -3 q 218 -8 208 -10 q 197 -13 191 -15 l 58 383 q 55 392 42 400 q 29 408 5 414 l 5 454 l 237 454 l 237 414 q 217 411 206 408 q 195 405 190 401 q 185 396 185 392 q 185 388 186 383 l 253 179 l 369 454 l 407 454 l 529 179 l 594 383 q 596 389 597 393 q 597 397 594 401 q 591 405 582 408 q 573 411 557 414 l 557 454 l 715 454 z"},"-":{"x_min":0,"x_max":361,"ha":361,"o":""},"E":{"x_min":0,"x_max":535,"ha":535,"o":"m 515 158 q 513 137 510 113 q 508 88 505 65 q 502 42 499 25 q 497 7 495 0 l 20 0 l 20 41 q 53 47 69 55 q 85 63 85 70 l 85 544 q 85 550 70 559 q 55 568 20 575 l 20 615 l 462 615 l 483 598 q 482 585 480 565 q 478 544 475 523 q 472 501 469 482 q 466 463 463 454 l 421 454 q 419 500 409 526 q 399 552 381 552 l 222 552 l 222 359 l 415 359 l 433 340 q 429 333 423 324 q 417 315 411 305 q 405 296 399 288 q 393 280 388 276 q 380 284 372 289 q 363 293 352 297 q 341 300 326 302 q 312 303 291 303 l 222 303 l 222 95 q 222 87 226 82 q 229 76 240 72 q 250 68 270 66 q 290 63 322 63 l 365 63 q 388 63 404 70 q 419 76 432 89 q 444 102 454 123 q 464 143 474 172 z"},"s":{"x_min":0,"x_max":430,"ha":430,"o":"m 395 138 q 395 104 384 79 q 374 54 356 37 q 339 20 317 10 q 295 0 273 -6 q 250 -11 229 -13 q 208 -15 193 -15 q 176 -15 156 -12 q 137 -10 116 -6 q 96 -1 77 5 q 58 12 42 21 q 38 22 36 39 q 35 55 35 78 q 35 101 37 127 q 40 152 45 172 l 90 167 q 97 139 108 117 q 120 95 135 80 q 151 65 169 57 q 188 49 208 49 q 243 49 258 59 q 273 69 273 96 q 273 116 263 132 q 253 147 237 161 q 221 174 200 186 q 179 198 157 209 q 136 220 116 232 q 95 245 78 260 q 62 276 51 295 q 41 313 41 337 q 41 367 56 392 q 72 416 98 433 q 124 450 156 459 q 189 469 225 469 q 247 469 270 466 q 292 463 312 458 q 332 454 349 447 q 366 440 377 431 q 380 429 379 414 q 377 398 373 379 q 368 360 362 342 q 355 323 348 314 l 310 318 q 301 364 279 389 q 257 415 222 415 q 193 415 178 403 q 163 392 163 371 q 163 355 170 344 q 177 332 191 321 q 206 310 227 299 q 248 288 275 273 q 296 262 318 250 q 339 238 356 222 q 374 206 384 186 q 395 166 395 138 z"},">":{"x_min":0,"x_max":459,"ha":459,"o":"m 435 312 q 431 297 425 279 q 419 261 415 249 l 42 115 l 24 132 q 26 137 28 147 q 31 156 34 167 q 37 177 39 186 q 42 195 43 200 l 296 290 l 38 381 l 24 404 q 30 409 36 415 q 43 422 50 429 q 57 436 65 442 q 73 448 80 453 l 417 333 z"},"l":{"x_min":0,"x_max":310,"ha":310,"o":"m 24 0 l 24 41 q 45 44 59 48 q 72 51 80 55 q 87 59 90 62 q 93 66 93 70 l 93 613 q 93 635 91 647 q 88 660 82 666 q 75 672 62 674 q 50 676 29 679 l 29 718 q 56 721 79 725 q 102 729 122 733 q 143 737 162 743 q 182 749 202 757 l 225 735 l 225 70 q 225 66 228 63 q 231 59 239 55 q 247 51 260 48 q 273 44 293 41 l 293 0 z"},"8":{"x_min":0,"x_max":518,"ha":518,"o":"m 188 464 q 188 446 196 433 q 203 420 216 409 q 229 398 247 389 q 265 380 285 372 q 321 416 321 458 q 321 483 314 500 q 308 516 298 526 q 288 535 275 539 q 263 542 250 542 q 235 542 224 536 q 212 530 204 520 q 196 509 192 495 q 188 480 188 464 z m 340 151 q 340 178 332 198 q 323 218 309 233 q 294 248 274 259 q 255 270 233 280 q 206 251 192 222 q 178 192 178 154 q 178 128 186 109 q 193 89 206 76 q 218 62 233 56 q 249 49 264 49 q 281 49 296 57 q 310 65 320 79 q 330 92 335 111 q 340 129 340 151 z m 482 172 q 482 134 464 100 q 446 66 415 41 q 384 15 341 0 q 299 -15 250 -15 q 197 -15 157 -2 q 117 11 90 32 q 63 54 50 81 q 36 109 36 139 q 36 164 46 188 q 56 211 74 233 q 92 254 117 273 q 142 292 171 307 q 149 317 129 329 q 109 341 94 357 q 79 374 70 395 q 61 417 61 447 q 61 480 77 509 q 93 538 120 559 q 148 580 185 591 q 222 603 265 603 q 314 603 350 593 q 387 583 410 566 q 434 549 446 525 q 458 501 458 473 q 458 454 449 437 q 441 420 427 404 q 412 388 393 373 q 373 358 350 344 q 375 333 399 318 q 423 303 442 283 q 460 263 471 236 q 482 208 482 172 z"},"\\":{"x_min":0,"x_max":469,"ha":469,"o":"m 430 -164 q 424 -162 412 -158 q 400 -154 388 -150 q 375 -146 365 -142 q 354 -137 350 -134 l 17 766 l 40 781 q 47 779 58 776 q 69 773 80 769 q 92 765 102 761 q 113 757 120 752 l 452 -146 z"},"e":{"x_min":0,"x_max":491,"ha":491,"o":"m 252 408 q 230 408 215 399 q 200 391 190 375 q 180 358 174 335 q 169 312 167 283 l 314 283 q 326 283 329 287 q 333 291 333 301 q 333 316 329 334 q 325 353 315 369 q 306 386 290 397 q 274 408 252 408 z m 462 267 q 458 262 448 256 q 439 250 429 244 q 418 238 407 233 q 396 228 389 225 l 166 225 q 167 191 176 163 q 184 135 198 115 q 212 95 233 84 q 254 73 281 73 q 296 73 311 75 q 326 77 343 83 q 359 88 381 100 q 402 111 431 130 q 434 128 438 123 q 443 118 447 113 q 451 107 455 102 q 458 97 459 95 q 424 62 397 40 q 370 19 344 6 q 319 -6 293 -10 q 268 -15 237 -15 q 194 -15 156 2 q 118 19 90 50 q 62 80 46 123 q 29 165 29 217 q 29 283 53 333 q 78 383 127 420 q 155 441 192 455 q 229 469 271 469 q 318 469 354 453 q 390 438 414 410 q 438 383 450 346 q 462 309 462 267 z"},"b":{"x_min":0,"x_max":547,"ha":547,"o":"m 391 204 q 391 253 383 286 q 375 319 360 340 q 346 360 327 369 q 309 378 287 378 q 270 378 247 370 q 224 362 190 342 l 190 109 q 229 90 256 82 q 283 73 296 73 q 320 73 338 83 q 356 93 368 110 q 379 128 385 152 q 391 176 391 204 z m 513 250 q 513 222 501 191 q 490 161 471 131 q 451 102 425 75 q 399 49 370 29 q 341 9 310 -3 q 278 -15 249 -15 q 234 -15 212 -10 q 190 -5 165 3 q 140 12 112 23 q 85 34 59 47 l 59 613 q 59 636 57 648 q 55 660 49 666 q 43 672 32 674 q 20 676 0 679 l 0 718 q 25 722 47 725 q 69 729 90 734 q 110 738 129 744 q 148 750 167 757 q 169 755 173 751 q 177 748 181 744 q 185 740 190 735 l 190 404 q 215 422 238 434 q 262 447 283 455 q 304 462 323 466 q 341 469 355 469 q 392 469 421 453 q 451 438 471 409 q 491 380 502 340 q 513 300 513 250 z"},"%":{"x_min":0,"x_max":741,"ha":741,"o":"m 608 142 q 608 214 593 248 q 578 283 553 283 q 540 283 531 276 q 521 270 515 256 q 509 242 506 219 q 503 196 503 163 q 503 90 517 55 q 531 21 559 21 q 572 21 582 27 q 591 33 597 48 q 603 62 605 85 q 608 108 608 142 z m 718 151 q 718 117 706 87 q 694 57 673 34 q 651 11 620 -2 q 590 -15 553 -15 q 516 -15 486 -2 q 457 11 436 34 q 416 57 405 87 q 394 117 394 151 q 394 186 405 216 q 416 246 437 269 q 458 292 489 305 q 520 318 559 318 q 598 318 627 305 q 657 292 677 269 q 697 247 708 216 q 718 186 718 151 z m 185 1 q 179 -1 169 -4 q 160 -6 149 -8 q 138 -10 127 -11 q 117 -13 110 -15 l 98 0 l 553 587 q 558 589 568 592 q 578 594 589 596 q 600 598 610 600 q 621 602 626 603 l 638 589 z m 237 428 q 237 500 222 535 q 207 569 182 569 q 169 569 160 563 q 150 557 144 542 q 138 528 135 505 q 132 482 132 449 q 132 376 146 342 q 160 307 188 307 q 201 307 210 313 q 220 320 226 334 q 231 349 234 372 q 237 395 237 428 z m 347 438 q 347 404 335 374 q 323 343 302 321 q 280 298 249 285 q 219 271 182 271 q 145 271 115 285 q 85 298 65 321 q 44 343 33 374 q 22 404 22 438 q 22 472 33 502 q 44 533 66 555 q 87 578 118 592 q 148 605 188 605 q 227 605 256 592 q 286 579 306 556 q 326 533 337 503 q 347 472 347 438 z"},"m":{"x_min":0,"x_max":857,"ha":857,"o":"m 594 0 l 594 41 q 611 45 622 49 q 632 53 638 57 q 644 61 645 64 q 647 67 647 70 l 647 290 q 647 319 644 337 q 641 354 635 363 q 628 372 619 374 q 609 376 597 376 q 579 376 553 367 q 528 359 498 338 l 498 70 q 498 67 500 64 q 502 61 508 57 q 515 54 526 50 q 538 45 557 41 l 557 0 l 313 0 l 313 41 q 331 45 341 49 q 352 53 357 57 q 363 61 365 64 q 366 67 366 70 l 366 290 q 366 319 364 337 q 362 354 357 363 q 352 372 343 374 q 334 376 321 376 q 302 376 277 368 q 251 360 217 338 l 217 70 q 217 63 231 55 q 244 47 276 41 l 276 0 l 22 0 l 22 41 q 54 49 70 55 q 85 62 85 70 l 85 333 q 85 352 84 363 q 83 375 77 381 q 71 387 58 390 q 45 393 22 396 l 22 435 q 50 438 72 441 q 94 444 114 448 q 133 452 151 457 q 169 462 188 469 l 210 447 l 215 403 q 245 425 268 438 q 292 451 312 458 q 332 464 349 467 q 367 469 385 469 q 408 469 426 463 q 443 457 455 448 q 467 439 475 429 q 482 418 486 408 l 488 402 q 518 424 542 437 q 566 450 586 457 q 606 464 625 466 q 643 469 661 469 q 684 469 705 462 q 727 455 743 440 q 759 424 769 399 q 779 374 779 337 l 779 70 q 779 63 794 57 q 809 50 848 41 l 848 0 z"},"#":{"x_min":0,"x_max":518,"ha":518,"o":"m 430 479 l 506 479 l 519 467 q 518 461 514 452 q 511 443 507 434 q 503 424 499 416 q 496 407 494 403 l 409 403 l 378 298 l 455 298 l 465 285 q 464 280 461 271 q 458 262 454 253 q 451 243 447 235 q 444 227 442 222 l 357 222 l 317 83 q 313 80 305 77 q 296 74 287 71 l 269 66 q 259 64 253 62 l 240 72 l 283 222 l 201 222 l 161 83 q 156 80 148 77 q 140 74 131 71 q 122 69 113 66 q 104 64 97 62 l 84 72 l 127 222 l 43 222 l 33 234 q 34 239 37 248 q 40 256 44 266 q 47 275 51 284 q 55 293 57 298 l 149 298 l 179 403 l 97 403 l 84 415 q 85 420 89 429 q 92 438 96 448 q 100 457 104 466 q 107 474 109 479 l 201 479 l 238 611 q 244 615 252 617 q 260 620 270 622 q 279 625 287 626 q 295 628 301 631 l 315 620 l 274 479 l 356 479 l 394 611 q 399 615 408 617 q 416 620 425 622 q 435 625 443 626 q 452 628 458 631 l 471 620 z m 222 298 l 305 298 l 334 403 l 252 403 z"},",":{"x_min":0,"x_max":283,"ha":283,"o":"m 249 34 q 249 6 237 -27 q 224 -60 203 -91 q 182 -123 154 -151 q 126 -179 96 -198 l 59 -171 q 86 -139 103 -103 q 120 -67 120 -24 q 120 -14 115 -3 q 110 8 101 17 q 92 26 79 31 q 66 36 51 35 l 43 78 q 46 82 56 87 q 66 92 80 98 q 95 104 112 111 q 128 117 145 121 q 161 126 176 129 q 190 132 200 131 q 211 126 221 118 q 230 110 236 98 q 242 87 246 71 q 249 55 249 34 z"},"n":{"x_min":0,"x_max":591,"ha":591,"o":"m 322 0 l 322 41 q 357 50 372 57 q 386 63 386 70 l 386 280 q 386 306 383 323 q 381 341 375 351 q 370 362 361 366 q 352 371 338 371 q 328 371 316 369 q 305 368 291 363 q 277 358 259 350 q 241 341 217 327 l 217 70 q 217 63 233 55 q 249 47 281 41 l 281 0 l 22 0 l 22 41 q 54 49 70 55 q 85 62 85 70 l 85 333 q 85 352 85 363 q 84 374 78 380 q 73 387 60 390 q 47 393 22 396 l 22 435 q 47 437 70 440 q 92 443 112 448 q 131 452 150 457 q 169 462 188 469 l 210 447 l 215 394 q 246 415 273 429 q 300 444 324 453 q 348 461 369 465 q 391 469 410 469 q 431 469 450 462 q 470 455 485 440 q 500 424 509 399 q 518 374 518 337 l 518 70 q 518 67 520 64 q 523 61 530 57 q 537 54 550 50 q 562 45 581 41 l 581 0 z"},"h":{"x_min":0,"x_max":591,"ha":591,"o":"m 322 0 l 322 41 q 357 50 372 57 q 386 63 386 70 l 386 270 q 386 300 383 319 q 380 339 374 350 q 367 362 357 366 q 347 371 333 371 q 320 371 307 368 q 295 365 281 359 q 268 354 252 345 q 236 337 217 327 l 217 70 q 217 63 233 55 q 249 47 281 41 l 281 0 l 22 0 l 22 41 q 54 49 70 55 q 85 62 85 70 l 85 614 q 85 635 84 646 q 83 658 77 664 q 71 670 58 673 q 45 676 22 679 l 22 718 q 52 722 75 726 q 99 729 119 734 q 139 739 157 744 q 175 750 194 757 l 217 735 l 217 397 q 248 417 274 431 q 301 445 325 453 q 349 461 370 465 q 391 469 410 469 q 431 469 450 462 q 470 455 485 440 q 500 424 509 399 q 518 374 518 337 l 518 70 q 518 67 520 64 q 523 61 530 57 q 537 54 550 50 q 562 45 581 41 l 581 0 z"},"z":{"x_min":0,"x_max":477,"ha":477,"o":"m 439 175 q 439 159 438 133 q 438 107 437 81 q 437 54 436 31 q 435 9 433 0 l 40 0 l 27 22 l 281 391 l 168 391 q 145 391 125 363 q 105 334 92 278 l 53 289 l 67 462 q 78 459 86 457 q 95 456 105 455 q 114 454 125 454 l 437 454 l 448 433 l 193 63 l 348 63 q 357 63 364 72 q 371 81 377 96 q 383 112 388 135 q 394 157 401 185 z"},"B":{"x_min":0,"x_max":618,"ha":618,"o":"m 236 574 q 232 574 229 574 q 226 574 222 574 l 222 364 l 229 364 q 275 364 304 373 q 333 382 349 398 q 365 413 370 433 q 376 453 376 474 q 376 499 369 517 q 362 536 346 548 q 330 561 303 568 q 276 574 236 574 z m 283 310 q 261 310 248 308 q 234 306 222 304 l 222 65 q 222 62 224 59 q 237 53 252 51 q 267 49 287 49 q 357 49 391 80 q 426 112 426 167 q 426 194 419 219 q 413 245 397 265 q 381 286 353 298 q 326 310 283 310 z m 569 174 q 569 132 552 99 q 534 65 500 42 q 467 19 418 6 q 369 -7 307 -7 q 296 -7 280 -7 q 264 -6 244 -6 q 225 -5 204 -5 q 183 -4 162 -3 q 114 -2 60 0 l 20 0 l 20 41 q 53 47 69 55 q 85 63 85 70 l 85 564 q 66 562 50 560 q 33 558 20 556 l 13 601 q 35 606 67 611 q 98 616 133 620 q 167 625 203 627 q 238 630 268 630 q 326 630 372 621 q 418 612 450 595 q 481 578 498 553 q 515 529 515 498 q 515 445 486 408 q 457 370 398 353 q 437 347 468 331 q 500 315 522 291 q 544 268 557 238 q 569 208 569 174 z"},"K":{"x_min":0,"x_max":632,"ha":632,"o":"m 20 0 l 20 41 q 53 47 69 55 q 85 63 85 70 l 85 544 q 85 550 70 559 q 55 568 20 575 l 20 615 l 288 615 l 288 575 q 255 568 239 560 q 222 551 222 544 l 222 324 l 397 531 q 409 544 414 552 q 419 560 417 564 q 415 569 405 571 q 395 573 376 575 l 376 615 l 601 615 l 601 575 q 585 573 574 571 q 564 569 556 566 q 548 562 542 557 q 535 552 527 544 l 319 331 l 554 86 q 562 78 570 74 q 578 70 586 68 q 595 66 605 66 q 616 67 628 68 l 632 28 q 618 23 599 17 q 581 11 562 6 q 543 0 526 -3 q 509 -7 497 -7 q 483 -7 472 -2 q 461 2 451 14 l 222 303 l 222 70 q 222 64 237 56 q 252 47 288 41 l 288 0 z"},"R":{"x_min":0,"x_max":620,"ha":620,"o":"m 20 0 l 20 41 q 53 47 69 55 q 85 63 85 70 l 85 560 l 20 551 l 13 601 q 66 612 131 621 q 196 630 268 630 q 337 630 386 619 q 434 607 464 587 q 494 567 508 540 q 521 513 521 482 q 521 449 511 421 q 501 393 483 370 q 465 347 440 330 q 415 312 385 302 l 541 97 q 549 87 555 81 q 562 74 570 71 q 578 68 589 67 q 600 67 617 68 l 625 28 q 608 22 587 16 q 565 10 544 5 q 522 0 504 -3 q 485 -7 476 -7 q 462 -7 448 1 q 435 9 428 20 l 291 284 q 287 283 282 283 l 274 283 q 261 283 249 284 q 236 286 222 289 l 222 70 q 222 64 237 56 q 252 47 288 41 l 288 0 z m 245 574 q 240 574 234 574 q 229 574 222 574 l 222 347 q 235 345 245 344 q 255 344 266 344 q 297 344 319 352 q 341 361 355 377 q 369 393 375 415 q 382 438 382 467 q 382 488 376 507 q 371 527 355 542 q 340 557 313 565 q 287 574 245 574 z"},"T":{"x_min":0,"x_max":590,"ha":590,"o":"m 145 0 l 145 41 q 167 45 182 50 q 197 55 205 59 q 213 64 217 68 q 220 72 220 76 l 220 552 l 104 552 q 96 552 89 546 q 83 540 75 527 q 68 514 60 493 q 51 473 41 444 l 0 458 q 1 473 3 494 q 6 516 9 538 q 12 561 15 582 q 19 603 21 615 l 553 615 l 573 598 q 572 585 570 566 q 568 547 565 527 q 562 506 559 485 q 556 464 553 449 l 512 449 q 507 472 504 491 q 501 510 497 523 q 493 537 487 544 q 481 552 471 552 l 357 552 l 357 76 q 357 73 360 69 q 364 64 372 60 q 380 55 395 50 q 410 45 432 41 l 432 0 z"},"P":{"x_min":0,"x_max":582,"ha":582,"o":"m 20 0 l 20 41 q 53 47 69 55 q 85 63 85 70 l 85 561 q 48 556 20 551 l 13 601 q 40 607 74 612 q 108 618 144 622 q 181 625 218 628 q 255 630 288 630 q 346 630 394 619 q 442 607 476 585 q 510 563 529 531 q 548 499 548 457 q 548 406 528 368 q 508 329 477 303 q 446 277 409 264 q 372 251 338 251 q 316 251 294 255 q 271 259 255 266 l 239 322 q 259 313 273 310 q 287 308 304 308 q 325 308 344 315 q 363 322 377 338 q 392 354 400 378 q 409 402 409 437 q 409 470 398 495 q 388 521 368 539 q 349 556 322 565 q 294 574 260 574 q 251 574 242 574 q 232 574 222 573 l 222 70 q 222 67 225 64 q 228 61 237 57 q 246 53 261 49 q 277 45 303 41 l 303 0 z"},"|":{"x_min":0,"x_max":229,"ha":229,"o":"m 166 -167 q 162 -171 153 -176 q 145 -180 135 -184 q 125 -188 115 -192 q 106 -196 100 -198 l 78 -182 l 78 787 q 85 791 93 795 q 102 799 110 803 q 119 807 128 810 q 136 813 144 815 l 166 800 z"},"t":{"x_min":0,"x_max":378,"ha":378,"o":"m 369 82 q 299 31 253 8 q 208 -15 182 -15 q 160 -15 140 -6 q 120 2 105 20 q 90 37 82 63 q 73 88 73 123 l 73 388 l 15 388 l 0 407 l 38 454 l 73 454 l 73 550 l 185 630 l 205 613 l 205 454 l 350 454 l 369 435 q 365 426 358 417 q 352 407 345 398 q 338 390 331 382 q 325 375 320 371 q 314 374 305 377 q 296 380 285 383 q 274 385 263 387 q 251 388 240 388 l 205 388 l 205 169 q 205 146 208 129 q 211 113 217 103 q 222 92 229 88 q 235 83 243 83 q 251 83 261 85 q 270 86 282 91 q 293 95 309 102 q 324 109 345 121 z"},"M":{"x_min":0,"x_max":860,"ha":860,"o":"m 811 575 q 799 575 783 572 q 767 568 750 562 l 754 70 q 754 64 772 56 q 790 47 825 41 l 825 0 l 559 0 l 559 41 q 592 47 611 55 q 630 63 630 70 l 626 448 l 421 0 l 368 0 l 170 447 l 166 70 q 166 64 181 56 q 197 47 232 41 l 232 0 l 24 0 l 24 41 q 58 47 74 55 q 90 63 90 70 l 95 559 q 78 568 61 571 q 43 575 29 575 l 29 615 l 208 615 q 213 615 217 614 q 221 612 225 608 q 229 604 234 595 q 238 587 244 574 l 419 177 l 601 574 q 607 589 612 597 q 616 605 620 609 q 625 613 628 614 q 632 615 637 615 l 811 615 z"},"g":{"x_min":0,"x_max":527,"ha":527,"o":"m 322 293 q 322 317 316 338 q 311 360 299 376 q 288 392 271 401 q 254 410 232 410 q 220 410 208 405 q 197 399 187 388 q 178 377 172 361 q 166 344 166 322 q 166 297 171 276 q 176 255 187 239 q 198 224 215 214 q 232 205 256 205 q 270 205 282 210 q 294 216 303 227 q 312 237 317 254 q 322 271 322 293 z m 277 -26 q 229 -20 190 -10 q 171 -24 160 -36 q 150 -47 145 -56 q 139 -65 138 -73 q 137 -81 137 -88 q 137 -103 148 -117 q 159 -130 179 -141 q 200 -151 228 -157 q 256 -164 289 -164 q 316 -164 336 -157 q 355 -150 367 -139 q 379 -128 385 -115 q 391 -101 391 -86 q 391 -79 387 -70 q 383 -62 371 -53 q 359 -45 337 -38 q 314 -31 277 -26 z m 449 313 q 449 275 433 244 q 417 213 388 191 q 360 169 323 156 q 286 144 244 144 l 238 144 q 221 127 217 118 q 213 108 213 105 q 213 102 215 98 q 217 94 228 90 q 238 86 259 82 q 280 78 318 73 q 377 65 416 55 q 454 45 477 31 q 500 17 509 -3 q 518 -22 518 -49 q 518 -71 507 -93 q 496 -116 478 -137 q 459 -158 434 -177 q 408 -195 379 -209 q 349 -223 317 -231 q 285 -239 252 -239 q 226 -239 198 -236 q 169 -233 141 -226 q 114 -219 89 -209 q 64 -198 46 -183 q 27 -168 16 -150 q 5 -131 5 -107 q 5 -95 10 -83 q 16 -71 29 -57 q 42 -43 66 -27 q 89 -11 125 9 q 98 20 83 32 q 69 43 69 55 q 69 67 92 94 q 114 120 164 154 q 136 162 113 175 q 90 188 73 206 q 57 224 48 246 q 39 268 39 294 q 39 330 57 362 q 75 394 105 417 q 136 441 176 455 q 216 469 261 469 q 297 469 327 459 q 358 450 382 433 q 402 436 421 441 q 440 445 457 450 q 474 456 488 460 q 502 465 512 469 l 527 449 q 526 444 523 437 q 520 429 516 421 q 512 413 507 405 q 503 396 499 391 q 483 388 466 386 q 450 384 430 383 q 449 351 449 313 z"},"j":{"x_min":0,"x_max":298,"ha":298,"o":"m 222 53 q 222 -3 211 -42 q 200 -80 183 -107 q 166 -133 145 -152 q 125 -170 105 -186 q 92 -196 75 -206 q 59 -215 41 -223 q 23 -230 6 -235 q -12 -239 -26 -239 q -47 -239 -69 -234 q -91 -229 -110 -221 q -128 -213 -140 -205 q -151 -197 -151 -191 q -151 -186 -146 -178 q -141 -170 -132 -161 q -124 -151 -113 -142 q -103 -133 -92 -125 q -82 -117 -73 -111 q -65 -104 -60 -103 q -52 -113 -40 -121 q -28 -130 -15 -136 q -2 -142 10 -146 q 22 -149 32 -149 q 44 -149 55 -143 q 65 -136 73 -118 q 81 -99 86 -66 q 90 -33 90 21 l 90 312 q 90 337 90 353 q 89 368 84 376 q 79 385 65 389 q 52 393 27 396 l 27 435 q 55 438 75 441 q 95 445 113 449 q 130 453 147 458 q 164 462 185 469 l 222 469 z m 244 616 q 244 598 237 584 q 230 570 218 560 q 206 550 190 544 q 173 539 154 539 q 139 539 126 542 q 112 545 102 552 q 91 560 84 570 q 78 581 78 596 q 78 613 85 627 q 92 642 104 651 q 117 661 133 667 q 149 672 168 672 q 183 672 196 669 q 210 666 220 659 q 231 652 238 641 q 244 631 244 616 z"},"i":{"x_min":0,"x_max":310,"ha":310,"o":"m 29 0 l 29 41 q 62 47 78 55 q 93 63 93 70 l 93 312 q 93 337 93 353 q 92 368 87 377 q 82 385 68 389 q 55 393 29 396 l 29 435 q 75 440 114 448 q 152 457 188 469 l 225 469 l 225 70 q 225 64 239 56 q 252 47 288 41 l 288 0 z m 244 616 q 244 598 237 584 q 230 570 218 560 q 206 550 190 544 q 173 539 154 539 q 139 539 126 542 q 112 545 102 552 q 91 560 84 570 q 78 581 78 596 q 78 613 85 627 q 92 642 104 651 q 117 661 133 667 q 149 672 168 672 q 183 672 196 669 q 210 666 220 659 q 231 652 238 641 q 244 631 244 616 z"},"y":{"x_min":0,"x_max":513,"ha":513,"o":"m 507 414 q 493 410 483 407 q 474 404 469 401 q 463 397 460 392 q 457 388 454 380 l 291 -35 q 270 -89 245 -127 q 221 -166 194 -191 q 166 -216 136 -228 q 105 -239 72 -239 q 53 -239 34 -235 q 16 -231 1 -226 q -14 -221 -23 -214 q -33 -208 -33 -204 q -33 -199 -24 -185 q -15 -171 -2 -156 q 10 -141 23 -127 q 36 -113 44 -108 q 69 -125 94 -130 q 119 -134 137 -127 q 146 -124 155 -119 q 165 -113 174 -104 q 183 -95 192 -80 q 201 -66 210 -45 l 224 -11 l 59 380 q 54 394 42 401 q 29 408 5 414 l 5 454 l 237 454 l 237 414 q 218 411 208 408 q 199 406 195 402 q 191 398 192 393 q 193 388 197 380 l 291 157 l 381 380 q 384 388 385 393 q 387 398 384 402 q 382 405 374 408 q 365 411 349 414 l 349 454 l 507 454 z"},"@":{"x_min":0,"x_max":900,"ha":900,"o":"m 515 357 q 505 377 492 389 q 480 400 458 400 q 419 400 400 359 q 381 318 381 227 q 381 186 387 159 q 393 132 402 116 q 412 100 423 94 q 435 88 447 88 q 456 88 464 90 q 472 92 479 98 q 487 104 495 115 q 503 125 515 142 z m 856 283 q 856 242 846 204 q 836 166 819 133 q 801 100 778 73 q 754 45 726 26 q 698 7 667 -4 q 636 -15 604 -15 q 588 -15 575 -11 q 562 -8 551 1 q 540 9 531 23 q 522 38 518 60 q 498 37 483 23 q 468 8 455 0 q 441 -8 427 -11 q 412 -15 393 -15 q 368 -15 342 -2 q 316 11 296 39 q 275 66 262 109 q 249 152 249 212 q 249 244 255 275 q 262 306 274 335 q 287 363 305 388 q 323 413 347 430 q 371 448 400 458 q 429 469 463 469 q 475 469 485 467 q 495 465 505 461 q 515 456 525 447 q 535 438 546 424 q 562 429 575 434 q 588 439 600 444 q 611 449 623 455 q 634 461 646 469 l 661 454 q 657 436 654 417 q 651 400 649 379 q 646 359 646 338 l 646 139 q 646 126 647 117 q 648 107 651 101 q 654 94 659 91 q 665 87 675 87 q 687 87 700 97 q 713 107 724 127 q 735 147 742 178 q 749 209 749 250 q 749 334 728 396 q 708 458 671 498 q 634 538 582 558 q 530 578 466 578 q 392 578 335 552 q 279 527 241 483 q 204 439 185 380 q 166 322 166 256 q 166 162 191 92 q 216 22 260 -23 q 303 -69 362 -92 q 421 -115 490 -115 q 538 -115 580 -106 q 622 -98 655 -85 q 689 -72 714 -58 q 739 -43 753 -30 l 779 -78 q 762 -98 734 -121 q 706 -144 667 -163 q 628 -182 578 -195 q 527 -208 466 -208 q 373 -208 295 -178 q 217 -149 162 -93 q 106 -38 75 43 q 44 124 44 227 q 44 287 59 344 q 75 400 103 449 q 131 498 171 539 q 211 580 260 609 q 310 638 366 654 q 423 670 485 670 q 567 670 635 647 q 704 624 753 576 q 802 528 829 455 q 856 382 856 283 z"},".":{"x_min":0,"x_max":283,"ha":283,"o":"m 239 65 q 239 44 231 29 q 223 13 210 2 q 197 -8 179 -14 q 162 -20 142 -20 q 127 -20 113 -16 q 99 -12 88 -3 q 77 5 71 18 q 64 31 64 50 q 64 70 72 86 q 80 102 94 113 q 107 124 125 129 q 142 135 161 135 q 175 135 189 131 q 203 127 214 118 q 225 110 232 97 q 239 83 239 65 z"},"p":{"x_min":0,"x_max":569,"ha":569,"o":"m 415 208 q 415 256 405 289 q 396 321 380 341 q 364 361 344 370 q 324 378 304 378 q 295 378 289 378 q 282 377 273 373 q 265 370 252 362 q 239 355 217 342 l 217 114 q 245 99 263 91 q 282 83 296 79 q 310 75 320 74 q 331 73 342 73 q 375 74 396 108 q 416 143 415 208 z m 540 245 q 540 212 531 180 q 521 147 507 119 q 492 90 472 65 q 453 41 431 23 q 410 5 389 -5 q 367 -15 348 -15 q 334 -15 320 -12 q 307 -9 291 -3 q 276 3 258 13 q 240 23 217 38 l 217 -164 q 217 -171 236 -179 q 254 -187 300 -194 l 300 -234 l 22 -234 l 22 -194 q 54 -186 70 -179 q 85 -172 85 -164 l 85 333 q 85 351 84 362 q 83 374 77 381 q 71 388 58 391 q 45 395 22 396 l 22 435 q 53 438 76 441 q 98 445 116 448 q 135 452 151 457 q 168 462 188 469 l 210 447 l 214 399 q 242 421 265 435 q 288 448 307 456 q 326 463 341 466 q 357 469 371 469 q 404 469 435 456 q 465 443 489 416 q 512 389 526 346 q 540 304 540 245 z"},"X":{"x_min":0,"x_max":635,"ha":635,"o":"m 351 0 l 351 41 q 372 42 385 46 q 398 49 404 53 q 410 58 409 65 q 409 72 402 82 l 293 239 l 187 82 q 179 71 177 64 q 174 57 179 52 q 183 47 195 45 q 208 42 230 41 l 230 0 l 10 0 l 10 41 q 42 43 64 52 q 86 62 99 82 l 249 304 l 91 534 q 84 544 77 551 q 70 558 62 562 q 53 567 42 570 q 31 572 15 575 l 15 615 l 294 615 l 294 575 q 252 571 240 563 q 227 555 242 534 l 336 396 l 424 534 q 431 545 433 552 q 435 559 430 564 q 426 568 414 571 q 401 573 379 575 l 379 615 l 601 615 l 601 575 q 583 573 569 570 q 555 567 545 562 q 534 558 526 551 q 518 544 511 534 l 381 331 l 552 82 q 560 71 566 64 q 573 57 581 52 q 589 48 600 45 q 610 42 625 41 l 625 0 z"},"*":{"x_min":0,"x_max":441,"ha":441,"o":"m 247 601 l 345 688 q 350 686 361 677 q 371 669 382 660 q 394 651 403 643 q 413 634 417 630 l 411 601 l 275 555 l 400 513 q 399 507 398 494 q 396 481 394 467 q 392 453 389 440 q 387 427 385 422 l 357 413 l 249 507 l 275 378 q 270 375 258 371 l 232 360 q 219 355 207 351 q 194 347 189 345 l 167 365 l 194 506 l 96 419 q 91 422 81 430 q 70 438 59 447 q 48 456 38 465 q 28 473 24 477 l 30 506 l 167 553 l 42 594 q 42 600 44 613 q 45 626 48 640 q 50 655 52 667 q 55 680 56 686 l 84 695 l 192 600 l 166 729 q 171 732 184 737 l 209 747 q 223 752 235 757 q 247 761 252 762 l 275 742 z"},"Y":{"x_min":0,"x_max":619,"ha":619,"o":"m 166 0 l 166 41 q 188 45 203 50 q 217 55 226 59 q 234 64 238 68 q 241 72 241 76 l 241 257 q 224 296 202 337 q 181 378 159 416 q 137 454 115 487 q 94 520 77 542 q 73 548 68 552 q 63 556 56 559 q 48 562 35 563 q 22 564 2 564 l 0 605 q 14 607 33 610 q 53 612 72 615 q 92 617 109 618 q 126 620 136 620 q 150 620 166 614 q 181 607 189 596 q 207 572 227 541 q 246 509 266 475 q 286 440 305 403 q 324 366 341 331 l 450 542 q 457 555 445 562 q 433 570 396 575 l 396 615 l 604 615 l 604 575 q 587 572 575 569 q 563 565 555 562 q 546 558 541 553 q 536 549 532 542 l 378 251 l 378 76 q 378 73 381 69 q 385 64 393 60 q 402 55 417 50 q 431 45 454 41 l 454 0 z"},"c":{"x_min":0,"x_max":461,"ha":461,"o":"m 444 93 q 413 57 385 36 q 357 15 332 3 q 306 -8 283 -11 q 260 -15 237 -15 q 196 -15 158 1 q 121 17 92 47 q 63 77 46 120 q 29 163 29 217 q 29 270 49 315 q 68 361 104 395 q 139 429 188 449 q 238 469 298 469 q 314 469 335 466 q 357 463 378 458 q 398 453 416 446 q 434 439 442 430 q 442 426 440 415 q 438 404 435 390 q 431 375 426 359 q 421 343 417 328 q 412 313 407 302 q 402 291 399 287 l 362 292 q 353 321 343 342 q 333 363 321 377 q 310 392 295 398 q 281 405 264 405 q 244 405 225 396 q 207 387 192 366 q 178 346 170 313 q 161 280 161 232 q 161 194 170 164 q 179 135 196 115 q 212 94 234 84 q 256 73 282 73 q 295 73 309 75 q 322 77 337 83 q 353 88 371 99 q 390 110 416 127 z"},"!":{"x_min":0,"x_max":321,"ha":321,"o":"m 246 65 q 246 44 238 29 q 230 13 217 2 q 204 -8 187 -14 q 169 -20 149 -20 q 135 -20 121 -16 q 106 -12 95 -3 q 84 5 78 18 q 71 31 71 50 q 71 70 79 86 q 87 102 101 113 q 114 124 132 129 q 149 135 168 135 q 182 135 196 131 q 210 127 221 118 q 232 110 239 97 q 246 83 246 65 z m 192 205 q 188 201 181 198 q 174 196 166 194 q 158 191 150 189 q 143 188 137 186 l 123 196 l 80 663 q 91 669 109 678 q 127 687 146 695 q 165 704 182 712 q 200 719 210 723 l 236 706 z"},"/":{"x_min":0,"x_max":479,"ha":479,"o":"m 123 -134 q 118 -137 106 -142 q 95 -146 82 -150 q 68 -154 56 -158 q 43 -162 38 -164 l 15 -146 l 357 752 q 363 757 375 761 q 386 765 399 769 q 411 773 423 776 q 434 779 441 781 l 464 766 z"},"[":{"x_min":0,"x_max":347,"ha":347,"o":"m 337 -107 q 336 -112 334 -120 q 332 -127 329 -136 q 326 -144 323 -152 q 320 -159 318 -164 l 59 -164 l 59 781 l 315 781 l 336 764 q 335 758 333 749 q 331 740 328 731 q 325 723 323 716 q 320 708 318 706 l 186 706 l 186 -88 l 315 -88 z"},"6":{"x_min":0,"x_max":518,"ha":518,"o":"m 273 312 q 254 312 231 299 q 208 285 186 262 q 186 204 193 164 q 201 124 215 99 q 229 74 247 62 q 265 51 286 51 q 305 51 318 61 q 331 71 339 88 q 346 104 349 126 q 352 147 352 170 q 352 216 345 244 q 339 271 328 287 q 317 302 303 307 q 289 312 273 312 z m 489 201 q 489 178 483 153 q 477 128 465 104 q 453 81 435 59 q 417 38 394 21 q 370 5 341 -5 q 312 -15 276 -15 q 228 -15 186 3 q 143 21 112 53 q 80 85 62 131 q 44 176 44 231 q 44 300 68 363 q 93 426 141 477 q 189 527 260 562 q 331 597 424 610 l 438 562 q 378 549 335 527 q 292 505 263 476 q 234 446 217 411 q 200 376 192 337 q 222 361 252 373 q 282 386 308 386 q 351 386 384 372 q 417 358 441 333 q 464 309 476 275 q 489 241 489 201 z"},"r":{"x_min":0,"x_max":459,"ha":459,"o":"m 444 446 q 447 444 447 432 q 447 421 444 404 q 441 387 437 366 q 433 346 428 327 q 423 308 418 292 q 413 275 409 267 l 368 267 q 367 286 363 305 q 359 324 353 338 q 346 353 336 362 q 327 371 314 371 q 305 371 295 369 q 284 368 272 360 q 260 352 246 336 q 232 320 217 291 l 217 70 q 217 63 238 55 q 259 47 305 41 l 305 0 l 22 0 l 22 41 q 85 55 85 70 l 85 320 q 85 336 84 347 q 83 358 82 365 q 81 372 78 376 q 76 380 74 382 q 71 386 67 388 q 64 390 58 392 q 53 393 44 394 q 36 395 22 396 l 22 435 q 52 438 73 442 q 95 445 112 449 q 130 453 147 457 q 165 462 188 469 l 210 447 l 216 390 q 229 406 246 420 q 263 435 282 445 q 302 456 323 462 q 344 469 365 469 q 384 469 405 462 q 426 456 444 446 z"},"2":{"x_min":0,"x_max":518,"ha":518,"o":"m 459 0 l 52 0 l 38 36 q 95 103 138 155 q 181 207 213 247 q 244 288 265 318 q 286 349 299 373 q 311 396 316 415 q 321 434 321 451 q 321 471 317 488 q 313 505 305 518 q 297 530 284 537 q 271 544 252 544 q 232 544 219 536 q 205 528 198 514 q 190 500 188 482 q 187 465 190 446 q 182 442 167 436 q 151 431 133 426 q 115 421 98 417 q 81 414 69 413 l 51 452 q 51 468 60 486 q 68 504 83 521 q 99 538 120 552 q 142 567 168 579 q 194 590 224 596 q 253 603 286 603 q 326 603 358 595 q 391 587 413 573 q 436 558 448 535 q 460 513 460 484 q 460 462 454 441 q 448 419 435 395 q 421 370 400 342 q 378 313 347 277 q 316 241 275 196 q 234 151 181 93 l 373 93 q 381 93 388 98 q 395 102 400 109 q 405 116 408 125 q 412 134 415 144 q 420 167 423 195 l 467 184 z"},"{":{"x_min":0,"x_max":355,"ha":355,"o":"m 345 739 q 307 715 284 684 q 260 653 260 621 q 260 596 263 576 q 267 556 270 536 q 274 516 277 496 q 280 476 280 451 q 280 430 273 410 q 265 391 252 373 q 239 356 221 342 q 203 328 183 319 q 231 310 256 276 q 280 242 280 188 q 280 162 277 139 q 274 116 270 95 q 267 73 263 52 q 260 32 260 11 q 260 -6 263 -21 q 266 -37 275 -50 q 283 -64 299 -77 q 314 -90 340 -104 l 319 -154 q 273 -137 236 -120 q 199 -104 174 -83 q 148 -62 134 -36 q 121 -10 121 25 q 121 50 124 72 q 127 93 131 114 q 134 135 137 157 q 141 179 141 206 q 141 246 125 261 q 108 276 79 276 l 69 276 q 66 276 63 276 q 61 276 58 275 q 55 274 47 273 l 39 319 q 93 334 117 359 q 141 385 141 421 q 141 447 137 468 q 134 488 131 507 q 127 526 124 546 q 121 567 121 593 q 121 626 136 653 q 152 681 180 704 q 207 727 244 746 q 281 765 323 781 z"},"9":{"x_min":0,"x_max":518,"ha":518,"o":"m 254 281 q 280 281 302 293 q 324 306 342 326 q 341 394 333 435 q 325 477 313 499 q 302 522 287 530 q 272 537 256 537 q 218 537 197 507 q 176 476 176 418 q 176 378 184 352 q 192 325 205 310 q 217 294 230 287 q 244 281 254 281 z m 483 357 q 483 283 459 218 q 435 154 387 104 q 340 55 268 22 q 197 -11 103 -21 l 89 27 q 158 44 204 67 q 250 90 278 118 q 307 146 321 180 q 334 214 339 252 q 314 229 283 216 q 253 203 219 203 q 174 203 141 218 q 107 233 85 259 q 62 285 51 318 q 39 352 39 388 q 39 425 56 463 q 72 501 102 532 q 132 563 174 583 q 216 603 267 603 q 315 603 355 589 q 395 575 424 545 q 452 515 468 468 q 483 422 483 357 z"}," ":{"x_min":0,"x_max":259,"ha":259,"o":""},"I":{"x_min":0,"x_max":337,"ha":337,"o":"m 29 0 l 29 41 q 62 47 79 55 q 95 63 95 70 l 95 544 q 95 550 80 559 q 64 568 29 575 l 29 615 l 298 615 l 298 575 q 265 568 248 560 q 232 551 232 544 l 232 70 q 232 64 247 56 q 263 47 298 41 l 298 0 z"},"H":{"x_min":0,"x_max":693,"ha":693,"o":"m 20 0 l 20 41 q 53 47 69 55 q 85 63 85 70 l 85 544 q 85 550 70 559 q 55 568 20 575 l 20 615 l 288 615 l 288 575 q 255 568 239 560 q 222 551 222 544 l 222 354 l 461 354 l 461 544 q 461 550 446 559 q 431 568 396 575 l 396 615 l 664 615 l 664 575 q 631 568 615 560 q 598 551 598 544 l 598 70 q 598 64 614 56 q 629 47 664 41 l 664 0 l 396 0 l 396 41 q 429 47 445 55 q 461 63 461 70 l 461 291 l 222 291 l 222 70 q 222 64 237 56 q 252 47 288 41 l 288 0 z"},"4":{"x_min":0,"x_max":518,"ha":518,"o":"m 276 469 l 128 234 l 276 234 z m 480 220 q 475 212 468 203 q 461 195 454 187 q 447 179 440 172 q 433 166 427 161 l 403 161 l 403 70 q 403 66 406 63 q 409 60 417 56 q 424 53 438 49 q 451 45 471 41 l 471 0 l 173 0 l 173 41 q 205 46 225 51 q 245 55 256 59 q 268 63 272 67 q 276 71 276 76 l 276 161 l 48 161 l 27 182 l 259 568 q 271 572 287 577 q 303 583 320 588 q 336 593 352 598 q 368 604 380 608 l 403 586 l 403 234 l 468 234 z"},"~":{"x_min":0,"x_max":488,"ha":488,"o":"m 464 378 q 454 354 438 328 q 422 303 403 281 q 384 260 362 247 q 339 233 316 233 q 295 233 272 245 q 250 257 226 272 q 202 287 179 299 q 156 311 135 311 q 111 311 91 292 q 70 273 50 232 l 24 245 q 34 269 50 295 q 66 320 85 342 q 104 363 126 376 q 148 390 172 390 q 194 390 218 378 q 242 366 265 351 q 288 336 310 324 q 333 312 352 312 q 375 312 396 331 q 417 350 438 390 z"},"D":{"x_min":0,"x_max":651,"ha":651,"o":"m 612 330 q 612 269 599 221 q 587 173 565 136 q 543 99 514 73 q 485 48 452 31 q 418 15 383 8 q 347 0 312 0 l 20 0 l 20 41 q 53 47 69 55 q 85 63 85 70 l 85 560 l 20 551 l 13 601 q 38 606 72 612 q 107 617 145 621 q 183 625 221 628 q 259 630 292 630 q 369 630 429 610 q 488 589 529 551 q 570 512 591 457 q 612 401 612 330 z m 255 574 q 248 574 239 574 q 230 574 222 573 l 222 93 q 222 84 223 78 q 224 71 231 66 q 237 61 251 58 q 266 56 292 56 q 318 56 348 70 q 379 84 405 115 q 431 146 448 194 q 465 242 465 311 q 465 441 412 508 q 359 574 255 574 z"},"^":{"x_min":0,"x_max":492,"ha":492,"o":"m 443 310 q 431 299 419 291 q 408 284 391 276 l 373 289 l 235 642 l 113 310 q 107 305 101 300 q 94 295 86 290 q 79 286 72 282 q 65 278 60 276 l 49 289 l 206 714 q 212 720 220 726 q 229 732 238 738 q 247 744 255 749 q 264 753 271 757 z"},"0":{"x_min":0,"x_max":518,"ha":518,"o":"m 347 276 q 347 343 341 392 q 334 441 322 473 q 310 505 292 521 q 275 537 254 537 q 233 537 217 525 q 202 514 191 487 q 181 461 176 418 q 171 376 171 315 q 171 181 194 116 q 217 51 264 51 q 286 51 301 63 q 317 75 327 102 q 337 128 342 171 q 347 214 347 276 z m 491 294 q 491 231 473 175 q 456 119 425 77 q 393 35 350 10 q 306 -15 254 -15 q 202 -15 160 10 q 119 35 89 77 q 59 119 43 175 q 27 231 27 294 q 27 357 43 413 q 60 469 90 511 q 121 554 165 578 q 208 603 264 603 q 317 603 360 579 q 402 554 431 512 q 460 470 475 414 q 491 357 491 294 z"},"F":{"x_min":0,"x_max":517,"ha":517,"o":"m 20 0 l 20 41 q 53 47 69 55 q 85 63 85 70 l 85 544 q 85 550 70 559 q 55 568 20 575 l 20 615 l 467 615 l 487 598 q 486 585 484 565 q 482 544 480 523 q 477 501 474 482 q 471 463 468 454 l 425 454 q 424 500 414 526 q 404 552 385 552 l 222 552 l 222 359 l 400 359 l 419 340 q 415 332 409 322 q 403 312 396 304 q 390 295 384 288 q 378 280 373 276 q 366 284 357 289 q 349 293 338 297 q 327 300 312 302 q 297 303 277 303 l 222 303 l 222 70 q 222 67 226 64 q 229 61 239 57 q 248 53 263 49 q 279 45 303 41 l 303 0 z"},"`":{"x_min":0,"x_max":319,"ha":319,"o":"m 223 531 q 220 528 213 525 q 207 521 200 517 q 193 514 187 511 q 180 508 176 506 l -16 690 l 0 720 q 3 721 12 723 q 21 725 33 727 q 45 729 59 732 q 72 734 84 737 q 97 739 106 740 l 120 742 z"},"k":{"x_min":0,"x_max":568,"ha":568,"o":"m 22 0 l 22 41 q 54 49 70 55 q 85 62 85 70 l 85 613 q 85 636 83 648 q 82 660 75 666 q 68 672 56 674 q 43 676 22 679 l 22 718 q 74 725 116 733 q 159 742 194 757 l 217 735 l 217 261 l 338 371 q 354 385 359 394 q 364 402 361 407 q 358 411 349 412 q 340 414 327 414 l 327 454 l 556 454 l 556 414 q 534 411 512 403 q 490 394 468 378 l 326 273 l 500 79 q 507 71 513 66 q 520 62 528 60 q 536 58 546 58 q 556 58 570 59 l 573 19 q 559 15 540 11 q 521 7 502 4 q 484 0 469 -2 q 454 -5 449 -5 q 429 -5 414 1 q 399 7 388 21 l 217 251 l 217 70 q 217 66 219 63 q 221 61 226 57 q 231 54 242 50 q 253 46 271 41 l 271 0 z"},"u":{"x_min":0,"x_max":574,"ha":574,"o":"m 571 60 q 553 48 529 35 q 506 21 483 10 q 461 0 443 -8 q 426 -15 420 -15 q 411 -15 403 -12 q 394 -10 386 -2 q 379 6 373 21 q 367 37 364 62 q 333 37 310 21 q 286 6 267 -2 q 247 -10 231 -12 q 215 -15 199 -15 q 176 -15 154 -8 q 131 -2 114 15 q 96 32 84 61 q 73 90 73 136 l 73 333 q 73 356 73 369 q 72 382 67 388 q 62 395 50 397 q 38 400 15 402 l 15 441 q 42 443 64 446 q 86 448 106 451 q 126 454 146 458 q 165 462 187 469 l 205 445 l 205 168 q 205 139 208 122 q 212 104 218 94 q 225 84 234 81 q 243 78 255 78 q 264 78 274 80 q 285 82 298 87 q 312 93 328 103 q 344 112 364 128 l 364 333 q 364 354 362 368 q 361 381 354 388 q 348 396 335 398 q 323 401 300 402 l 300 441 q 354 446 396 453 q 438 460 476 469 l 496 445 l 496 144 q 496 128 496 119 q 497 110 498 104 q 499 98 501 95 q 503 92 507 90 q 510 88 513 87 q 517 87 522 88 q 527 89 535 93 q 543 96 556 101 z"},"]":{"x_min":0,"x_max":347,"ha":347,"o":"m 32 -164 l 11 -146 q 12 -140 14 -131 q 17 -123 19 -114 q 22 -105 25 -98 q 27 -91 29 -88 l 161 -88 l 161 706 l 32 706 l 10 725 q 11 729 13 737 q 16 745 19 753 q 21 762 24 769 q 27 777 29 781 l 288 781 l 288 -164 z"},"U":{"x_min":0,"x_max":673,"ha":673,"o":"m 647 575 q 614 568 597 560 q 581 551 581 544 l 581 256 q 581 192 562 142 q 543 91 510 57 q 478 22 433 4 q 388 -15 335 -15 q 285 -15 239 -1 q 194 13 160 42 q 125 70 105 114 q 85 157 85 217 l 85 544 q 85 550 70 559 q 55 568 20 575 l 20 615 l 288 615 l 288 575 q 255 568 239 560 q 222 551 222 544 l 222 251 q 222 204 229 168 q 237 133 254 109 q 271 85 299 73 q 327 61 369 61 q 403 61 427 76 q 450 91 463 117 q 477 143 483 176 q 488 209 488 246 l 488 544 q 488 550 473 559 q 458 568 422 575 l 422 615 l 647 615 z"},"o":{"x_min":0,"x_max":532,"ha":532,"o":"m 364 212 q 364 251 357 286 q 351 321 338 347 q 325 374 306 390 q 287 405 262 405 q 234 405 216 392 q 198 379 187 355 q 177 332 173 300 q 168 268 168 231 q 168 192 176 159 q 184 126 197 101 q 210 77 229 63 q 248 49 271 49 q 298 49 316 59 q 334 70 344 91 q 355 111 359 142 q 364 172 364 212 z m 503 237 q 503 204 494 173 q 485 142 469 114 q 453 86 430 62 q 407 39 380 21 q 353 4 321 -5 q 290 -15 257 -15 q 205 -15 163 3 q 121 21 91 51 q 62 82 45 125 q 29 167 29 217 q 29 249 37 280 q 45 312 61 340 q 76 368 98 391 q 120 415 147 432 q 174 449 207 459 q 239 469 276 469 q 327 469 369 451 q 411 434 441 403 q 471 372 487 329 q 503 287 503 237 z"},"N":{"x_min":0,"x_max":668,"ha":668,"o":"m 20 0 l 20 41 q 55 45 70 54 q 85 63 85 70 l 85 538 q 70 553 53 562 q 36 572 20 575 l 20 615 l 167 615 q 174 615 179 614 q 184 613 188 609 q 193 605 199 597 q 205 590 214 577 l 505 172 l 505 544 q 505 547 502 552 q 500 556 492 560 q 484 564 472 568 q 459 572 439 575 l 439 615 l 649 615 l 649 575 q 614 570 599 561 q 583 551 583 544 l 583 -15 q 557 -13 535 -7 q 513 -1 496 6 q 479 14 467 24 q 455 34 447 44 l 164 437 l 164 70 q 164 67 167 63 q 170 59 178 55 q 186 51 198 47 q 210 43 229 41 l 229 0 z"},"+":{"x_min":0,"x_max":425,"ha":425,"o":"m 251 108 q 247 105 239 103 q 231 100 223 97 q 214 94 206 91 q 198 89 193 88 l 176 104 l 176 237 l 42 237 l 24 253 q 26 259 29 267 q 32 275 36 283 q 40 292 43 300 q 47 308 49 312 l 176 312 l 176 442 q 180 444 188 447 q 196 449 205 452 q 213 455 221 458 q 229 460 235 461 l 251 445 l 251 312 l 383 312 l 400 296 q 399 291 396 282 q 392 274 388 265 q 384 256 381 249 q 377 241 375 237 l 251 237 z"},"G":{"x_min":0,"x_max":607,"ha":607,"o":"m 543 580 q 545 578 543 570 q 541 562 536 550 q 531 539 524 525 q 518 512 510 500 q 503 487 497 478 q 491 468 486 464 l 451 472 q 435 499 418 517 q 402 535 385 546 q 368 557 350 562 q 332 566 312 566 q 299 566 284 562 q 268 557 251 545 q 235 534 219 515 q 204 496 191 468 q 179 439 171 400 q 164 362 164 311 q 164 247 178 201 q 192 155 216 125 q 240 96 271 82 q 301 68 335 68 q 358 68 377 72 q 395 76 410 83 l 410 227 q 410 232 409 238 q 408 243 401 248 q 395 252 380 257 q 366 262 339 267 l 339 308 l 588 308 l 588 267 q 574 264 565 259 q 557 255 551 250 q 546 244 544 239 q 542 233 542 227 l 542 85 q 506 55 474 36 q 441 17 413 5 q 384 -6 359 -10 q 333 -15 312 -15 q 275 -15 240 -7 q 205 1 173 18 q 141 34 114 59 q 86 84 67 117 q 47 150 36 192 q 24 234 24 284 q 24 365 51 429 q 77 494 123 538 q 169 583 232 606 q 295 630 370 630 q 386 630 409 626 q 432 623 457 617 q 481 610 504 601 q 527 592 543 580 z"},"q":{"x_min":0,"x_max":559,"ha":559,"o":"m 262 88 q 274 88 286 90 q 297 92 308 97 q 320 103 332 111 q 344 120 359 133 l 359 337 q 351 351 339 363 q 327 375 313 383 q 299 391 285 396 q 271 400 259 400 q 237 400 219 392 q 201 384 188 366 q 175 348 168 320 q 161 292 161 251 q 161 210 169 179 q 178 148 192 128 q 206 108 224 98 q 242 88 262 88 z m 276 -234 l 276 -194 q 322 -187 340 -179 q 359 -172 359 -164 l 359 62 q 335 41 316 26 q 297 11 278 2 q 260 -7 240 -11 q 221 -15 198 -15 q 169 -15 139 1 q 109 17 85 47 q 61 77 45 120 q 29 163 29 217 q 29 260 39 293 q 49 326 64 351 q 80 375 98 393 q 117 411 134 422 q 147 432 164 440 q 181 449 198 455 q 216 461 234 465 q 252 469 269 469 q 283 469 297 467 q 311 465 325 459 q 339 453 354 442 q 370 431 389 413 q 402 419 417 427 q 432 435 446 442 q 460 450 471 457 q 481 464 486 469 l 506 449 q 501 433 498 415 q 495 399 493 378 q 491 357 491 335 l 491 -164 q 491 -167 494 -171 q 497 -175 504 -179 q 511 -183 523 -187 q 535 -190 554 -194 l 554 -234 z"},"d":{"x_min":0,"x_max":574,"ha":574,"o":"m 572 61 q 549 45 524 32 q 500 18 477 8 q 455 -2 438 -9 q 421 -15 415 -15 q 396 -15 385 6 q 374 27 368 66 q 344 43 325 28 q 306 12 289 3 q 271 -7 253 -11 q 235 -15 213 -15 q 178 -15 145 1 q 112 17 87 47 q 61 77 45 120 q 29 163 29 217 q 29 268 47 314 q 64 359 96 394 q 128 428 172 448 q 216 469 269 469 q 292 469 315 463 q 337 458 364 440 l 364 603 q 364 629 363 645 q 362 661 356 670 q 351 678 337 681 q 324 685 298 687 l 298 725 q 327 728 354 731 q 380 735 403 740 q 426 744 445 748 q 463 753 476 757 l 496 737 l 496 153 q 496 136 496 125 q 497 113 498 106 q 500 99 502 96 q 504 92 507 91 q 510 89 513 89 q 516 88 521 89 q 526 90 535 93 q 543 95 556 101 z m 364 133 l 364 341 q 345 369 321 385 q 296 400 264 400 q 242 400 223 392 q 204 383 190 365 q 177 346 169 317 q 161 288 161 247 q 161 209 170 179 q 179 150 194 130 q 209 109 228 99 q 247 88 267 88 q 279 88 291 90 q 302 92 313 97 q 325 103 337 111 q 350 120 364 133 z"},"1":{"x_min":0,"x_max":518,"ha":518,"o":"m 73 0 l 73 45 q 111 50 137 55 q 162 61 177 67 q 192 73 199 78 q 205 84 205 89 l 205 439 q 205 459 204 470 q 202 480 196 487 q 193 490 186 492 q 178 494 164 494 q 150 493 128 490 q 105 487 73 480 l 58 525 q 72 527 93 533 q 114 539 139 547 q 163 554 189 563 q 215 572 239 580 q 262 588 282 596 q 302 603 314 608 l 337 586 l 337 89 q 337 84 342 79 q 348 73 361 67 q 375 62 399 56 q 422 50 459 45 l 459 0 z"},"5":{"x_min":0,"x_max":518,"ha":518,"o":"m 462 200 q 462 158 449 119 q 436 80 408 50 q 380 21 337 3 q 294 -15 234 -15 q 212 -15 186 -10 q 161 -4 135 6 q 109 16 84 31 q 59 46 38 65 l 65 113 q 91 95 114 83 q 136 72 156 65 q 176 59 193 56 q 209 54 224 54 q 246 54 265 63 q 284 72 299 89 q 313 105 322 128 q 330 151 330 179 q 330 212 321 238 q 312 263 297 279 q 282 296 261 304 q 240 312 216 312 q 194 312 176 309 q 158 306 143 300 q 128 294 115 286 q 103 278 90 269 l 67 285 q 70 302 74 327 q 78 352 82 380 q 86 408 90 437 q 94 467 98 495 q 101 522 104 547 q 106 571 107 588 l 378 588 q 393 588 403 590 q 414 591 422 593 q 431 595 438 597 l 457 578 q 451 570 442 557 q 432 544 422 531 q 411 518 402 506 q 392 495 386 491 l 168 491 q 167 477 165 460 q 163 443 161 426 q 158 409 155 394 q 152 379 150 368 q 173 379 200 385 q 227 391 260 391 q 311 391 349 374 q 387 358 412 331 q 437 305 449 270 q 462 236 462 200 z"}}}
